<svg xmlns="http://www.w3.org/2000/svg" viewBox="0 0 100 120">
  <defs>
    <linearGradient id="bg" x1="0" y1="0" x2="0" y2="1">
      <stop offset="0%" stop-color="#050505"/>
      <stop offset="100%" stop-color="#0a0a0a"/>
    </linearGradient>
    <linearGradient id="bean" x1="0" y1="0" x2="0" y2="1">
      <stop offset="0%" stop-color="#7ED848"/>
      <stop offset="55%" stop-color="#3EA52A"/>
      <stop offset="100%" stop-color="#1C6A13"/>
    </linearGradient>
    <linearGradient id="leafR" x1="0" y1="1" x2="1" y2="0">
      <stop offset="0%" stop-color="#6BB01E"/>
      <stop offset="100%" stop-color="#CBEC4A"/>
    </linearGradient>
    <linearGradient id="leafL" x1="0" y1="0" x2="0" y2="1">
      <stop offset="0%" stop-color="#1E5E4E"/>
      <stop offset="100%" stop-color="#0E3A2E"/>
    </linearGradient>
  </defs>
  <rect width="100" height="120" fill="url(#bg)"/>
  <path d="M 12 78 C 12 92 26 102 50 102 C 74 102 88 92 88 78 C 88 72 85 66 78 66 L 22 66 C 15 66 12 72 12 78 Z" fill="url(#bean)"/>
  <path d="M 24 74 C 24 70 28 68 36 68 L 62 68 C 70 68 74 70 72 74" stroke="rgba(255,255,255,0.25)" stroke-width="1.2" fill="none" stroke-linecap="round"/>
  <path d="M 50 66 C 50 58 50 52 50 40" stroke="#3EA52A" stroke-width="4" stroke-linecap="round" fill="none"/>
  <path d="M 50 44 C 36 40 24 30 22 18 C 36 18 48 30 50 44 Z" fill="url(#leafL)"/>
  <path d="M 50 44 C 66 38 80 26 82 12 C 68 13 54 26 50 44 Z" fill="url(#leafR)"/>
</svg>
